<?xml version="1.0" encoding="UTF-8" standalone="no"?>
<!DOCTYPE svg PUBLIC "-//W3C//DTD SVG 1.1//EN" "http://www.w3.org/Graphics/SVG/1.1/DTD/svg11.dtd">
<svg width="100%" height="100%" viewBox="0 0 6250 6250" version="1.1" xmlns="http://www.w3.org/2000/svg" xmlns:xlink="http://www.w3.org/1999/xlink" xml:space="preserve" xmlns:serif="http://www.serif.com/" style="fill-rule:evenodd;clip-rule:evenodd;stroke-linejoin:round;stroke-miterlimit:2;">
    <g transform="matrix(4.16667,0,0,4.16667,0,0)">
        <path d="M1141.78,1142.24C1129.06,1142.55 1016.87,1145.38 993.774,1151.1C977.385,1155.19 947.58,1147.96 937.479,1144.84C932.317,1143.21 926.803,1146.12 925.2,1151.3C923.59,1156.48 926.48,1161.97 931.658,1163.58C933.008,1164 958.816,1171.93 981.933,1171.93C987.777,1171.93 993.445,1171.42 998.507,1170.15C1016.27,1165.76 1108.29,1162.69 1142.25,1161.88C1147.67,1161.75 1151.96,1157.25 1151.83,1151.82C1151.7,1146.4 1147.15,1142.17 1141.78,1142.24Z" style="fill:white;fill-rule:nonzero;"/>
        <path d="M1124.34,816.237L763.915,832.359" style="fill:none;fill-rule:nonzero;"/>
        <path d="M824.409,826.905L874.538,719.207" style="fill:none;fill-rule:nonzero;"/>
        <path d="M874.538,827.404L958.651,721.639" style="fill:none;fill-rule:nonzero;"/>
        <path d="M958.651,823.638L1016.88,739.264" style="fill:none;fill-rule:nonzero;"/>
        <path d="M1026.18,820.624L1059.03,761" style="fill:none;fill-rule:nonzero;"/>
        <path d="M1026.18,820.624L1066.37,874.642" style="fill:none;fill-rule:nonzero;"/>
        <path d="M958.651,823.638L1011.43,909.791" style="fill:none;fill-rule:nonzero;"/>
        <path d="M874.538,827.404L912.854,895.879" style="fill:none;fill-rule:nonzero;"/>
        <path d="M824.409,826.905L848.961,904.857" style="fill:none;fill-rule:nonzero;"/>
        <path d="M418.138,832.359L734.616,832.359" style="fill:none;fill-rule:nonzero;"/>
        <path d="M664.289,832.359L626.01,730.015" style="fill:none;fill-rule:nonzero;"/>
        <path d="M598.356,832.359L576.376,728.68" style="fill:none;fill-rule:nonzero;"/>
        <path d="M535.357,832.359L484.654,766.645" style="fill:none;fill-rule:nonzero;"/>
        <path d="M535.357,832.359L484.654,906.187" style="fill:none;fill-rule:nonzero;"/>
        <path d="M598.356,832.359L542.424,917.953" style="fill:none;fill-rule:nonzero;"/>
        <path d="M664.289,832.359L621.217,906.186" style="fill:none;fill-rule:nonzero;"/>
        <path d="M840.104,727.468L846.694,729.001" style="fill:none;fill-rule:nonzero;"/>
        <path d="M1068.08,860.497L1045.1,829.61L1102.69,827.034C1094.56,836.116 1082.93,848.01 1068.08,860.497ZM975.725,832.713L1021.42,830.669L1052.69,872.709C1041.46,881.083 1028.85,889.337 1015,896.824L975.725,832.713ZM773.731,799.724L773.731,789.424C783.987,780.315 818.485,751.22 856.028,735.727L816.725,820.167L773.731,822.09L773.731,799.724ZM749.265,775.258C746.228,775.258 743.349,775.883 740.663,776.9C733.027,767.568 701.421,733.884 637.988,722.105C605.959,670.789 595.357,624.126 606.536,583.397C615.705,549.992 637.955,527.493 653.67,515.152C650.738,545.798 653.21,573.771 660.66,599.099C660.754,599.706 660.977,600.254 661.182,600.834C667.153,620.411 676.052,638.431 688.249,654.602C726.79,705.699 785.845,725.772 817.42,733.198C786.673,751.28 763.143,772.406 758.182,776.997C755.411,775.907 752.418,775.258 749.265,775.258ZM706.994,918.193C714.125,913.041 720.001,907.716 724.799,902.601L724.799,930.825C721.271,927.747 715.384,923.118 706.994,918.193ZM434.511,842.176L516.705,842.176L482.092,892.574C457.521,875.111 442.467,855.098 434.511,842.176ZM482.792,780.305L515.382,822.541L438.548,822.541C448.302,811.232 463.475,795.328 482.792,780.305ZM724.799,799.724L724.799,822.541L671.098,822.541L641.249,742.734C692.174,753.967 717.974,780.416 724.799,788.496L724.799,799.724ZM618.908,739.055L650.136,822.541L606.309,822.541L588.316,737.677C589.68,737.636 591.035,737.561 592.408,737.561C601.819,737.561 610.592,738.135 618.908,739.055ZM568.664,739.636L586.241,822.541L540.184,822.541L498.741,768.831C519.005,755.409 542.668,744.109 568.664,739.636ZM525.775,915.622L523.132,914.417C514.258,911.07 506.193,907.194 498.726,903.039L540.525,842.176L580.215,842.176L534.207,912.583C534.1,912.748 534.095,912.94 533.998,913.108C531.283,913.934 528.546,914.771 525.775,915.622ZM562.679,904.903L603.668,842.176L647.196,842.176L615.464,896.567C597.59,897.151 580.389,900.309 562.679,904.903ZM686.456,908.228C673.369,903.056 657.142,898.785 637.855,897.146L669.926,842.176L724.799,842.176L724.799,868.905C722.356,874.189 712.225,893.095 686.508,908.181C686.486,908.194 686.477,908.216 686.456,908.228ZM517.346,645.901C517.346,610.989 534.288,583.681 567.704,564.736C578.344,558.705 589.056,554.499 598.055,551.604C593.949,559.617 590.335,568.317 587.677,577.925C575.913,620.441 584.562,667.77 613.237,718.79C606.562,718.264 599.665,717.927 592.408,717.927C576.06,717.927 560.456,720.464 545.748,724.76C526.979,700.678 517.346,674.2 517.346,645.901ZM593.521,467.477C609.512,447.809 630.55,438.033 649.831,441.366C659.06,442.957 666.933,447.425 673.054,454.259C673.135,454.368 673.246,454.45 673.332,454.556C675.672,457.219 677.771,460.204 679.552,463.558C675.95,465.721 671.798,468.49 668.369,471.519C662.578,476.685 659.469,483.745 657.92,488.383C649.853,493.102 630.696,505.733 613.652,527.304C606.021,528.831 588.798,532.956 569.845,541.863C569.093,525.048 571.471,494.602 593.521,467.477ZM776.37,412.513C821.277,412.513 847.218,436.958 858.705,451.499C835.248,451.095 817.125,454.784 815.593,455.114C815.35,455.166 815.172,455.33 814.937,455.398C814.59,455.499 814.244,455.541 813.907,455.68C813.704,455.767 813.55,455.936 813.353,456.035C813.262,456.08 813.185,456.151 813.096,456.199C812.513,456.511 811.967,456.825 811.467,457.24C811.272,457.401 811.029,457.458 810.845,457.637C805.456,462.822 800.176,467.263 794.967,471.24C786.747,450.195 771.466,438.275 751.467,438.275C724.505,438.275 708.815,451.951 700.608,462.764C698.568,457.449 696.069,452.528 693.082,448.111C701.763,437.114 726.701,412.513 776.37,412.513ZM956.646,550.854C956.196,564.42 951.111,576.943 941.938,587.841C930.91,520.527 885.283,492.307 875.663,487.08C873.753,482.63 871.125,478.543 867.77,474.848C866.662,473.628 865.5,472.484 864.296,471.408C885.588,472.461 910.239,477.514 928.222,492.91C946.967,508.959 957.328,530.077 956.646,550.854ZM986.327,651.009C986.327,675.076 972.012,698.132 949.83,710.058C939.222,708.39 928.154,707.222 916.642,706.625C931.717,689.41 944.428,661.926 944.428,618.06C944.428,616.296 944.25,614.704 944.205,612.982C950.509,607.771 956.012,602.078 960.527,595.923C970.282,605.083 986.327,624.205 986.327,651.009ZM1062.43,775.171C1080.07,786.949 1093.59,798.592 1102.65,807.378L1043.22,810.036L1062.43,775.171ZM1020.2,751.742C1029.32,755.879 1037.87,760.25 1045.74,764.781L1020.24,811.064L977.952,812.956L1020.2,751.742ZM962.549,732.516C976.518,735.565 989.499,739.549 1001.64,744.072L953.344,814.057L895.65,816.637L962.549,732.516ZM746.06,632.809C766.407,632.809 783.557,627.478 796.879,621.005C845.821,597.222 875.668,543.676 879.005,513.138C896.564,527.462 924.794,559.566 924.794,618.06C924.794,660.504 911.525,691.229 886.422,706.914C886.366,706.948 886.34,707.007 886.285,707.043C881.427,707.669 876.562,708.68 871.704,709.897C871.464,709.971 871.223,710.003 870.988,710.094C862.5,712.268 854.093,715.219 845.878,718.734L842.329,717.908C842.149,717.865 841.978,717.923 841.799,717.891C841.592,717.854 841.42,717.736 841.209,717.712C840.327,717.613 752.156,706.864 703.834,642.657C698.341,635.359 693.577,627.63 689.507,619.498C710.292,629.094 729.279,632.809 746.06,632.809ZM672.14,537.134C687.295,549.804 711.467,566.006 736.913,566.938C753.46,567.478 768.056,561.814 780.473,549.926C813.806,518.02 823.554,490.287 826.36,475.496C834.406,476.865 846.079,480.159 853.235,488.043C858.328,493.654 860.422,500.871 859.632,510.098C857.745,532.04 832.289,581.966 788.296,603.346C754.386,619.832 717.533,615.742 678.744,591.321C674.095,574.61 671.874,556.536 672.14,537.134ZM713.845,478.069C718.273,470.935 729.367,457.909 751.467,457.909C766.698,457.909 774.287,469.898 778.117,482.154C764.765,489.216 752.094,492.103 740.257,490.444C729.232,488.892 720.372,483.599 713.845,478.069ZM681.407,486.199C683.56,484.295 686.441,482.362 689.163,480.707C696.979,490.542 712.989,506.333 737.254,509.849C740.518,510.32 743.801,510.558 747.113,510.558C764.231,510.558 782.032,504.105 800.299,491.578C794.59,503.561 784.581,518.817 766.897,535.745C758.346,543.929 748.725,547.702 737.676,547.319C710.447,546.346 682.707,520.961 673.789,512.064C674.359,507.048 675.026,501.983 675.893,496.814C676.235,495.21 678.045,489.203 681.407,486.199ZM838.834,819.178L881.39,727.752C887.479,726.514 893.53,725.766 899.445,725.766C913.838,725.766 927.516,726.824 940.549,728.634L869.633,817.801L838.834,819.178ZM1133.58,819.388C1133.97,818.255 1134.17,817.085 1134.13,815.906C1134.13,815.869 1134.15,815.837 1134.15,815.8C1134.14,815.614 1134.03,815.463 1134.02,815.28C1133.92,814.311 1133.7,813.371 1133.31,812.46C1133.14,812.062 1132.92,811.721 1132.71,811.352C1132.49,810.977 1132.36,810.566 1132.09,810.216C1129.4,806.762 1076.51,740.141 976.193,715.335C994.68,698.893 1005.96,675.409 1005.96,651.009C1005.96,613.454 982.094,588.435 970.45,578.451C973.975,569.893 975.959,560.838 976.265,551.502C977.146,524.735 964.292,497.945 940.992,477.992C924.175,463.598 903.311,456.626 883.445,453.551C883.349,453.327 883.361,453.086 883.247,452.867C881.966,450.416 851.064,392.878 776.37,392.878C721.796,392.878 692.05,418.951 679.55,433.72C671.931,427.815 663.061,423.722 653.168,422.015C626.811,417.444 598.816,429.834 578.289,455.091C547.417,493.068 548.968,535.844 550.994,552.214C523.386,569.872 497.711,598.908 497.711,645.901C497.711,676.662 507.307,705.456 526.252,731.678C457.483,760.154 412.501,823.295 410.097,826.729C409.771,827.192 409.553,827.703 409.315,828.205C409.237,828.372 409.132,828.513 409.063,828.685C408.632,829.748 408.433,830.868 408.393,832.006C408.388,832.13 408.32,832.234 408.32,832.359C408.32,832.497 408.394,832.61 408.399,832.747C408.443,833.858 408.606,834.966 409.034,836.025C409.041,836.041 409.076,836.123 409.085,836.145C409.095,836.168 409.104,836.189 409.113,836.211C410.554,839.741 433.254,892.772 496.942,924.313C458.814,935.366 415.022,945.417 357.984,945.417C352.563,945.417 348.167,949.812 348.167,955.235C348.167,960.657 352.563,965.052 357.984,965.052C431.736,965.052 483.645,949.107 529.44,935.033C562.673,924.825 591.373,916.004 621.216,916.004C683.087,916.004 714.119,947.649 714.602,948.148L735.218,968.756C737.136,970.674 739.647,971.633 742.159,971.633C744.671,971.633 747.187,970.674 749.104,968.756C752.935,964.922 752.935,958.702 749.101,954.874L744.434,950.209L744.434,870.907L744.434,799.724C744.434,797.063 746.6,794.893 749.265,794.893C751.931,794.893 754.097,797.063 754.097,799.724L754.097,942.917C754.097,948.34 758.492,952.734 763.914,952.734C769.337,952.734 773.731,948.34 773.731,942.917L773.731,902.617C780.364,909.686 789.018,917.188 800.238,924.012C804.878,926.819 810.914,925.361 813.729,920.721C816.544,916.089 815.071,910.053 810.438,907.23C786.164,892.474 776.163,874.02 773.731,868.874L773.731,841.749L818.167,839.761L839.599,907.813C840.918,912.001 844.791,914.678 848.963,914.678C849.938,914.678 850.935,914.532 851.916,914.225C857.086,912.599 859.954,907.084 858.328,901.908L838.47,838.853L868.936,837.49L904.285,900.673C906.079,903.886 909.424,905.696 912.859,905.696C914.485,905.696 916.127,905.297 917.646,904.446C922.378,901.8 924.065,895.818 921.419,891.085L890.885,836.509L953.317,833.716L997.321,905.551C994.834,906.676 992.373,907.825 989.817,908.887C984.809,910.965 982.438,916.71 984.518,921.718C986.09,925.492 989.74,927.769 993.591,927.769C994.841,927.769 996.122,927.532 997.349,927.018C1003.82,924.328 1010.01,921.403 1016.05,918.381C1016.22,918.292 1016.4,918.259 1016.56,918.16C1016.6,918.134 1016.62,918.091 1016.66,918.065C1089.21,881.595 1130.48,824.541 1132.33,821.928C1132.68,821.448 1132.85,820.903 1133.09,820.384C1133.26,820.045 1133.46,819.747 1133.58,819.388Z" style="fill:white;fill-rule:nonzero;"/>
        <path d="M517.76,1199.28C460.057,1125 360.274,1144.05 356.056,1144.88C350.736,1145.94 347.293,1151.12 348.359,1156.43C349.429,1161.75 354.637,1165.18 359.913,1164.13C360.838,1163.96 451.935,1146.55 502.255,1211.33C506.577,1216.89 511.535,1222.22 516.984,1227.19C518.867,1228.91 521.237,1229.76 523.596,1229.76C526.262,1229.76 528.919,1228.67 530.855,1226.55C534.506,1222.55 534.219,1216.33 530.215,1212.68C525.586,1208.46 521.395,1203.95 517.76,1199.28Z" style="fill:white;fill-rule:nonzero;"/>
        <path d="M933.721,1139.43L931.052,1136.81C924.679,1130.45 855.138,1060.91 802.362,1008.14C798.527,1004.31 792.315,1004.31 788.48,1008.14C784.646,1011.98 784.646,1018.19 788.48,1022.02C841.255,1074.81 910.812,1144.35 917.178,1150.7L919.992,1153.47C930.086,1163.34 956.906,1189.58 957.014,1209.31C957.037,1214.19 955.357,1218.15 951.714,1221.79C946.43,1227.08 940.585,1229.44 934.488,1229.54C920.939,1229.39 908.229,1217.79 905.504,1215.14C899.849,1209.24 894.111,1204.14 889.682,1200.23C887.733,1198.5 886.146,1197.11 885.156,1196.12L842.721,1153.69L828.838,1167.57L871.274,1210.01C872.463,1211.2 874.343,1212.87 876.674,1214.94C885.816,1223.02 907.23,1241.95 907.667,1256.23C907.774,1259.77 906.447,1262.8 903.503,1265.75C898.97,1270.27 894.337,1272.42 889.375,1272.13C879.267,1271.67 869.043,1261.91 865.959,1258.2C865.944,1258.18 865.922,1258.18 865.906,1258.16C863.176,1254.56 860.135,1250.93 856.403,1247.2L805.346,1196.12L791.464,1210L842.521,1261.09C850.843,1269.39 855.882,1276.97 857.5,1283.59C859.126,1290.23 857.254,1295.78 851.44,1301.59C841.762,1311.26 827.343,1304.28 822.46,1301.45C820.097,1297.44 817.28,1293.6 813.844,1290.17C801.979,1278.31 771.561,1244.05 771.254,1243.71C767.649,1239.64 761.444,1239.27 757.395,1242.89C753.342,1246.48 752.974,1252.69 756.574,1256.75C757.84,1258.16 787.683,1291.78 799.962,1304.06C805.023,1309.11 808.468,1315.46 809.411,1321.46C810.423,1327.87 808.605,1333.29 803.873,1338.03C801.91,1339.99 799.678,1340.69 796.771,1340.84C790.183,1340.79 774.675,1336.11 744.905,1305.39C741.139,1301.49 734.923,1301.41 731.026,1305.17C727.131,1308.95 727.034,1315.16 730.808,1319.05C757.679,1346.79 779.208,1360.33 796.618,1360.47L796.879,1360.47C804.939,1360.47 812.148,1357.52 817.756,1351.91C825.253,1344.41 829.173,1335 829.239,1324.92C832.507,1325.64 835.915,1326.1 839.399,1326.1C848.258,1326.1 857.469,1323.33 865.323,1315.47C873.068,1307.73 877.191,1298.9 877.61,1289.52C880.999,1290.66 884.54,1291.55 888.34,1291.74C888.93,1291.77 889.521,1291.79 890.104,1291.79C900.013,1291.79 909.416,1287.61 917.385,1279.63C924.142,1272.88 927.563,1264.58 927.286,1255.63C927.211,1253.17 926.817,1250.73 926.24,1248.32C928.808,1248.82 931.445,1249.14 934.15,1249.18L934.757,1249.18C946.261,1249.18 956.638,1244.64 965.597,1235.68C972.982,1228.3 976.702,1219.39 976.648,1209.2C976.495,1181.28 946.521,1151.95 933.721,1139.43Z" style="fill:white;fill-rule:nonzero;"/>
        <path d="M734.632,1291.27C724.013,1317.73 689.599,1351.51 673.263,1351.5C671.191,1351.5 670.232,1350.89 669.432,1349.97C661.919,1341.33 674.471,1317.54 699.949,1292.1C711.377,1280.68 722.644,1273.86 730.079,1273.86C732.61,1273.86 734.57,1274.65 736.426,1276.43C737.876,1277.81 737.93,1283.05 734.632,1291.27ZM610.773,1322.41C598.482,1310.13 621.035,1276.55 648.83,1248.72C653.001,1244.56 658.511,1239.05 664.494,1233.78C664.747,1233.53 665.071,1233.4 665.301,1233.12C665.332,1233.08 665.354,1233.05 665.386,1233.01C675.257,1224.43 686.283,1216.68 694.695,1216.68C697.625,1216.68 699.941,1217.7 702.208,1219.98C705.832,1223.62 707.512,1227.55 707.496,1232.36C707.427,1251.59 680.806,1277.97 669.436,1289.24L666.689,1291.96C665.298,1293.36 663.79,1294.91 662.176,1296.57C651.27,1307.76 633.02,1326.49 619.717,1326.49C616.392,1326.48 613.55,1325.19 610.773,1322.41ZM565.63,1284.89C554.198,1273.47 575.573,1241.82 601.815,1215.54C628.072,1189.32 644.175,1181.7 654.038,1190.82C657.763,1194.26 665.384,1201.38 650.878,1219.69C645.496,1224.47 640.171,1229.62 634.944,1234.84C623.096,1246.7 608.502,1263.08 598.649,1279.99C590.421,1286.92 576.286,1295.55 565.63,1284.89ZM529.594,1244.26C524.593,1239.26 530.215,1227.79 534.016,1221.4C541.401,1208.98 552.775,1196.85 558.892,1190.73L561.407,1188.21C569.688,1179.87 583.546,1165.92 591.94,1165.92C592.999,1165.92 594.307,1166.14 595.99,1167.74C597.724,1169.39 598.51,1171.32 598.54,1174C598.69,1186.08 584.029,1206.22 569.43,1220.81L565.933,1224.38C558.32,1232.19 544.154,1246.73 534.87,1246.72C533.563,1246.72 531.779,1246.45 529.594,1244.26ZM730.079,1254.23C727.079,1254.23 724.091,1254.78 721.126,1255.55C724.755,1247.98 727.104,1240.18 727.131,1232.43C727.165,1222.35 723.464,1213.5 716.128,1206.13C710.215,1200.19 702.806,1197.04 694.695,1197.04C689.478,1197.04 684.252,1198.32 679.039,1200.49C678.743,1189.3 672.62,1181.26 667.364,1176.4C651.721,1161.94 633.647,1166.66 618.041,1176.33C618.096,1175.47 618.186,1174.61 618.175,1173.76C618.079,1165.81 615.088,1158.81 609.527,1153.52C604.558,1148.79 598.476,1146.29 591.94,1146.29C575.374,1146.29 559.904,1161.86 547.479,1174.37L545.014,1176.85C538.245,1183.62 525.617,1197.11 517.135,1211.37C502.282,1236.36 508.165,1250.59 515.711,1258.14C521.088,1263.52 527.715,1266.36 534.87,1266.36C538.173,1266.36 541.419,1265.61 544.621,1264.55C541.093,1277.21 542.213,1289.25 551.744,1298.78C558.941,1305.98 567.636,1309.54 577.004,1309.54C580.597,1309.54 584.295,1308.95 588.038,1307.9C586.618,1318.4 588.819,1328.23 596.892,1336.3C603.407,1342.81 611.084,1346.11 619.713,1346.12L619.717,1346.12C629.616,1346.12 639.389,1341.56 648.419,1335.27C646.315,1345.22 647.598,1354.79 654.613,1362.86C659.326,1368.28 665.772,1371.14 673.263,1371.14L673.267,1371.14C702.063,1371.14 741.396,1327.13 752.851,1298.59C760.907,1278.51 755.75,1267.74 750.001,1262.24C744.518,1257 737.63,1254.23 730.079,1254.23Z" style="fill:white;fill-rule:nonzero;"/>
        <path d="M674.106,1065.62C674.106,1022.8 741.365,974.01 773.693,950.564C780.695,945.479 786.233,941.468 789.938,938.4C812.134,920.031 858.78,909.063 914.73,909.063C957.911,909.063 993.583,928.981 1015.89,945.678C1043.89,966.663 1132.3,967 1142.04,967.023C1147.46,967.008 1151.85,962.605 1151.83,957.183C1151.82,951.768 1147.42,947.389 1142.01,947.389C1141.62,947.381 1141.39,947.389 1141.08,947.389C1105.82,947.389 1044.66,942.703 1027.67,929.963C1002.96,911.472 963.318,889.429 914.73,889.429C853.45,889.429 803.405,901.762 777.421,923.275C774.199,925.936 768.623,929.986 762.158,934.672C724.63,961.9 654.855,1012.51 654.472,1065.18C654.022,1070.72 650.832,1118.71 672.511,1142.46C680.732,1151.46 691.278,1156.03 703.849,1156.03C714.909,1156.03 723.848,1152.53 730.425,1145.63C744.56,1130.79 743.283,1104.48 742.255,1083.34C741.856,1075.11 741.308,1063.85 742.366,1061.4C753.81,1046.68 778.579,1024.9 795.421,1024.9C800.844,1024.9 805.238,1020.5 805.238,1015.08C805.238,1009.66 800.844,1005.26 795.421,1005.26C767.289,1005.26 736.396,1037.09 726.869,1049.34C721.294,1056.5 721.861,1068.16 722.644,1084.29C723.445,1100.77 724.538,1123.34 716.209,1132.08C714.444,1133.93 711.246,1136.39 703.849,1136.39C696.839,1136.39 691.493,1134.11 687.025,1129.24C673.155,1114.07 672.967,1078.81 674.067,1066.5C674.091,1066.21 674.106,1065.91 674.106,1065.62Z" style="fill:white;fill-rule:nonzero;"/>
    </g>
</svg>
